<svg width="327" height="138" viewBox="0 0 327 138" fill="none" xmlns="http://www.w3.org/2000/svg">
<g filter="url(#filter0_d_509_53)">
<path d="M35.8575 128.327C35.8754 128.879 36.3374 129.312 36.8894 129.294L45.8847 129.003C46.4367 128.985 46.8697 128.523 46.8518 127.971C46.8339 127.419 46.3719 126.986 45.8199 127.004L37.8241 127.263L37.5652 119.267C37.5473 118.715 37.0854 118.282 36.5334 118.3C35.9814 118.318 35.5484 118.78 35.5663 119.332L35.8575 128.327ZM322.423 127.297C239.389 121.799 176.531 113.569 129.618 103.896C82.6901 94.2194 51.7728 83.11 32.5807 71.8848C13.3578 60.6417 6.12387 49.4272 6.00159 39.6009C5.87905 29.7529 12.89 20.7796 23.3987 14.0108C33.8737 7.26365 47.597 2.86955 60.3654 2.11566C73.1724 1.35948 84.7588 4.27218 91.2561 11.8076C97.6977 19.2784 99.4369 31.6658 91.7163 50.6032C83.9986 69.5333 66.9064 94.772 36.1274 127.611L37.5866 128.979C68.4327 96.0682 85.7156 70.6195 93.5683 51.3582C101.418 32.1042 99.9229 18.7964 92.7708 10.5015C85.6744 2.27128 73.3077 -0.651988 60.2475 0.119136C47.1487 0.892543 33.0907 5.38902 22.3157 12.3294C11.5744 19.248 3.86652 28.759 4.00175 39.6258C4.13725 50.5143 12.1376 62.245 31.571 73.6112C51.0351 84.9955 82.1958 96.1595 129.214 105.854C176.245 115.552 239.2 123.791 322.291 129.293L322.423 127.297Z" fill="black" fill-opacity="0.8"/>
</g>
<defs>
<filter id="filter0_d_509_53" x="0" y="0" width="326.423" height="137.295" filterUnits="userSpaceOnUse" color-interpolation-filters="sRGB">
<feFlood flood-opacity="0" result="BackgroundImageFix"/>
<feColorMatrix in="SourceAlpha" type="matrix" values="0 0 0 0 0 0 0 0 0 0 0 0 0 0 0 0 0 0 127 0" result="hardAlpha"/>
<feOffset dy="4"/>
<feGaussianBlur stdDeviation="2"/>
<feComposite in2="hardAlpha" operator="out"/>
<feColorMatrix type="matrix" values="0 0 0 0 0 0 0 0 0 0 0 0 0 0 0 0 0 0 0.25 0"/>
<feBlend mode="normal" in2="BackgroundImageFix" result="effect1_dropShadow_509_53"/>
<feBlend mode="normal" in="SourceGraphic" in2="effect1_dropShadow_509_53" result="shape"/>
</filter>
</defs>
</svg>
